<?xml version="1.0" encoding="UTF-8" standalone="no"?>
<svg
   xmlns:dc="http://purl.org/dc/elements/1.1/"
   xmlns:cc="http://creativecommons.org/ns#"
   xmlns:rdf="http://www.w3.org/1999/02/22-rdf-syntax-ns#"
   xmlns:svg="http://www.w3.org/2000/svg"
   xmlns="http://www.w3.org/2000/svg"
   xmlns:xlink="http://www.w3.org/1999/xlink"
   xmlns:sodipodi="http://sodipodi.sourceforge.net/DTD/sodipodi-0.dtd"
   xmlns:inkscape="http://www.inkscape.org/namespaces/inkscape"
   viewBox="0 0 1000 500"
   aria-labelledby="title"
   aria-describedby="desc"
   role="img"
   version="1.1"
   id="svg10"
   sodipodi:docname="template-gamipress-horizontal.svg"
   inkscape:version="0.92.4 (5da689c313, 2019-01-14)"
   width="1000"
   height="500">
  <metadata
     id="metadata16">
    <rdf:RDF>
      <cc:Work
         rdf:about="">
        <dc:format>image/svg+xml</dc:format>
        <dc:type
           rdf:resource="http://purl.org/dc/dcmitype/StillImage" />
        <dc:title>Ticket</dc:title>
      </cc:Work>
    </rdf:RDF>
  </metadata>
  <defs
     id="defs14">
    <path
       d="M240.96 55.109a22.172 22.172 0 0 1-.289 2.042c-.27 1.569-.317 3.25-.561 4.701v.859c-.135.767-.264 1.536-.403 2.3-.003.364-.016.727-.026 1.088-.855 4.901-1.212 10.166-2.06 15.068-.013.36-.027.724-.033 1.084-.32 1.766-.453 3.906-.793 5.662-.026.491-.046.986-.069 1.481-.356 1.995-.409 4.482-.762 6.513-.027.819-.04 1.645-.063 2.464-.126 1.802-.241 3.601-.37 5.4v3.027c-.02 1.281-.043 2.565-.063 3.85v4.177c0 1.701-.191 3.542.063 5.098v1.15c.208 1.144.419 2.281.637 3.421.456 2.391-.069 4.659-1.495 5.661-.611.429-1.347.679-2.13.785h-1.88a8.698 8.698 0 0 1-3.161-1.03 5.787 5.787 0 0 1-3.252-.023c-14.852-4.211-30.488-6.73-46.113-8.614-15.658-1.841-31.438-2.916-47.193-3.276-15.757-.338-31.524.016-47.024 1.517-7.741.756-15.42 1.805-22.872 3.332-7.414 1.543-14.71 3.551-20.973 6.451a5.993 5.993 0 0 1-.631.331c-1.862.865-3.849.855-5.826.242-1.961-.629-3.982-1.835-5.434-3.758-1.44-1.913-1.902-4.305-1.189-6.618.69-2.307 2.529-4.446 5.051-5.606.294-.138.594-.259.892-.37 8.378-3.549 16.698-5.482 24.964-6.976 8.27-1.445 16.494-2.319 24.691-2.88 16.391-1.104 32.677-.989 48.89-.173 16.213.842 32.359 2.408 48.417 4.77 8.026 1.186 16.028 2.579 24.008 4.256 6.784 1.435 13.545 3.08 20.273 5.082.225-1.458.449-2.896.71-4.449V95.023c.102-2.658.201-5.315.3-7.965.169-1.101.225-3.811-.234-4.741-.621.934-1.027 2.005-1.69 2.899-1.836 2.474-5.755 5.688-10.208 3.981-1.06-.409-1.928-1.068-2.757-1.713-1.192-.937-2.073-2.363-2.879-3.683-.214-.354-.676-1.881-1.132-2.107-.508.269-.805.947-1.159 1.38-.716.76-1.436 1.513-2.149 2.273-3.42 3.395-9.27 7.697-16.216 5.557-1.449-.449-2.519-1.455-3.579-2.303-1.436-1.153-2.535-3.185-3.314-4.97-.288-.649-.426-1.445-1.03-2.071-.935.678-1.701 2.339-2.42 3.289-2.493 3.277-5.167 6.275-9.313 7.929-1.651.659-4.863.898-6.633.138-1.888-.822-3.159-2.493-4.173-4.178-.402-.674-.954-2.496-1.825-2.565-1.083.436-2.371 2.313-3.348 3.086-2.971 2.366-6.081 4.397-11.535 3.326-1.059-.21-2.215-.714-3.05-1.219-1.902-1.143-3.453-2.791-4.612-4.675-.254-.403-1.093-2.559-1.426-2.625-.228-.049-1.044.885-1.185 1.049-.984 1.088-2.268 2.08-3.421 2.994-2.109 1.668-4.579 3.106-7.428 4.014-1.224.39-2.383.341-3.806.564-1.04.16-2.354.186-3.45 0-1.01-.184-1.997-.227-2.918-.495-3.378-.986-6.022-2.756-7.927-5.2a21.67 21.67 0 0 1-2.218-3.555c-.268-.534-.373-1.359-.928-1.615-.68.102-1.159 1.032-1.525 1.484-.859 1.062-2.117 2.146-3.216 2.959-2.383 1.776-7.167 4.249-11.601 3.257-2.499-.554-4.655-1.989-6.002-3.719a12.078 12.078 0 0 1-2.221-4.472c-.479-1.875-.258-4.437.132-6.285.019-.393.046-.786.066-1.182.132-.698.277-1.367.465-2.11.578-2.287 1.344-4.509 1.955-6.71.541-1.95.993-3.804-.73-4.8-.294-.174-.779-.443-1.324-.328-1.693.347-2.773 4.335-3.549 5.855-2.558 4.996-6.064 9.144-9.448 13.322-.552.547-1.103 1.097-1.658 1.648-1.049 1.16-2.182 2.179-3.413 3.152-.565.521-1.129 1.038-1.69 1.553-4.487 3.351-9.356 6.287-15.649 7.86-3.899.979-9.518 1.097-13.522.164-.413-.046-.822-.082-1.228-.131-2.139-.593-4.417-1.39-6.233-2.399C9.673 86.959 5.031 79.866 2.446 71.364c-.95-3.139-1.33-6.566-2.02-10.036-.043-.976-.089-1.953-.132-2.926-.139-.806-.013-1.834-.165-2.768-.172-1.039-.172-2.556 0-3.585.023-.832.046-1.667.066-2.499.406-2.373.452-4.895.927-7.041.033-.426.066-.855.103-1.285.389-1.658.723-3.568 1.258-5.229 3.618-11.31 8.676-20.972 17.999-26.584 2.759-1.662 5.932-2.739 9.583-3.552.869-.059 1.747-.108 2.615-.167 1.155-.184 2.737-.272 3.978-.062 1.215.196 2.298.045 3.45.258 1.083.266 2.166.528 3.249.79.607.262 1.214.528 1.822.793.561.098 2.393-1.655 2.918-1.976 3.15-1.923 7.022-1.336 8.917 1.35 1.314 1.861.928 4.702-.264 6.386-.373.517-1.634 1.618-1.657 2.267.505 1.065 1.337 1.986 1.819 3.126.957 2.247 1.555 4.787 2.06 7.532l.033 1.35c.35 2.257.082 4.905-.367 6.844-1.459 6.327-4.661 10.803-10.141 13.126-2.163.914-5.794 1.713-8.887 1.022-5.751-1.284-8.696-5.02-10.208-10.53-.027-.557-.046-1.118-.07-1.678-.241-1.52-.277-4.073.07-5.655.376-1.73.647-3.457 1.258-4.97.67-1.655 1.581-3.342 2.585-4.708.356-.485 1.584-1.642 1.591-2.333-1.591-.823-4.11-.095-5.504.36-4.116 1.35-7.15 6.088-9.214 9.61-2.495 4.243-3.733 9.324-5.004 14.835-.377 1.622-.232 3.185-.532 4.938-.551 3.24-.508 8.23.066 11.349.248 1.353.175 2.343.466 3.621 1.614 7.126 4.334 12.23 9.907 15.461 3.905 2.257 11.733 1.651 15.681-.197l1.829-.658a4242.15 4242.15 0 0 1 3.774-2.136c4.78-3.165 7.966-7.775 11.274-12.408 1.063-1.484 2.02-3.031 3.017-4.607.654-1.038 1.331-1.946 1.823-3.188.571-1.445.815-3.568.495-5.363-.152-.865-.634-1.632-.462-2.697.673-4.102 2.792-6.755 6.331-7.997l1.559-.197c2.819-.501 4.912 1.946 5.272 3.981.353 2.022-1.4 4.377 0 5.396.545.397 1.522.164 2.351.295 1.195.131 2.39.265 3.581.397 4.193.828 6.379 2.788 7.293 6.841v.953a13.017 13.017 0 0 1-.33 4.214c-.759 3.014-1.476 5.733-2.453 8.525-.521 1.474-.578 3.935 1.027 4.239 1.621.305 3.097-1.844 3.744-2.667 1.155-1.454 2.139-3.004 3.119-4.669.33-.56.76-1.15.961-1.811l.132-1.478c.291-1.641.33-3.27.693-4.803 2.084-8.732 5.827-16.159 12.404-20.432 2.205-1.435 5.43-2.801 9.082-2.175.475.023.95.049 1.426.069 4.922 1.114 7.797 3.826 9.217 8.453.396 1.307.773 3.384.499 5.101-.06.924-.116 1.845-.169 2.765l-.861 4.043c-1.522 4.672-4.332 8.81-7.858 11.52-1.865 1.432-4.011 2.592-6.464 3.417-1.35.459-3.833.315-4.909 1.023-.297.986.238 3.181.532 4.016.614 1.734 1.413 2.949 2.852 3.847 3.229 2.021 7.666-.777 9.515-2.202 1.016-.786 1.865-1.88 2.618-2.929.32-.383.637-.773.964-1.153 1.208-1.707 2.195-3.526 3.281-5.364.707-1.238 1.413-2.477 2.123-3.718.472-1.258.518-2.582.99-3.785 1.034-2.637 2.04-5.098 3.45-7.335.644-1.019 1.486-1.914 2.215-2.828.433-.527.869-1.124 1.393-1.546 2.902-2.3 4.725-3.68 9.182-4.541 1-.194 2.32-.24 3.35-.066.638.105 1.222.4 1.922.229.604-.868.168-2.683.37-3.846.594-3.548.627-7.136 1.224-10.662 1.417-8.354 3.018-16.496 6.732-22.603 1.492-2.458 2.72-4.096 5.962-4.866 1.106-.265 2.476-.095 3.318.357.64.341 1.195.652 1.621 1.186.944 1.173 1.707 2.9 2.06 4.607.297 1.448.158 2.697.399 4.243.126.822.093 1.995-.036 2.798-.033.898-.069 1.799-.096 2.696-.092 1.458-.178 2.916-.267 4.378-.608 3.715-.796 7.519-1.595 10.953-.029.396-.062.789-.095 1.186-2.041 9.606-4.117 18.993-6.897 27.898-.069.364-.132.728-.201 1.088-.238.754-.482 1.514-.727 2.27.01.8.023 1.599.03 2.402-.007.888-.02 1.776-.03 2.667.149.914.245 2.008.397 2.857l.099 1.121c.287 1.11 1.135 2.804 2.717 2.136 1.479-.619 2.301-2.245 3.086-3.585 1.4-2.385 2.678-4.927 3.846-7.565.73-1.523 1.46-3.05 2.189-4.574.271-.494.766-.812.928-1.415.366-1.396-.04-2.857.201-4.341.357-2.277.413-5.007.793-7.238l.029-1.183c.423-2.218.436-4.58.836-6.877 1.35-7.801 2.02-15.828 4.044-22.967.396-1.412.564-2.677.96-4.079 1.281-4.571 3.097-10.114 6.428-12.634a9.142 9.142 0 0 1 2.852-1.415c.38-.053.75-.109 1.126-.164 10.772-.118 8.775 13.249 7.131 21.683-1.241 6.327-3.077 12.303-4.876 17.994-.822 2.598-1.611 5.078-2.618 7.536-1.093 2.696-2.189 5.396-3.281 8.092-.529 1.275-1.172 2.441-1.529 3.948-.522 2.258-.429 4.761-.432 7.369 0 2.018-.08 4.226.303 6.051.353 1.707.4 3.008 1.291 4.155 2.8 3.574 7.068-1.294 8.485-3.129 1.548-1.999 2.832-4.056 4.047-6.422.419-.829.845-1.661 1.261-2.496v-1.249c.046-.976.086-1.953.132-2.929.33-1.887.35-3.725.763-5.56.842-3.728 2.403-7.391 5.995-8.423.505-.145 1.367-.154 1.925-.066 2.783.439 4.489 1.573 5.14 4.079.175.655.479 1.569.333 2.434-.452 2.664-1.459 4.535-1.987 7.077-.135.885-.264 1.776-.403 2.664-.089.603.033 1.307-.066 1.91v2.766c.02.645.046 1.29.066 1.933.327 1.848.829 3.679 2.658 4.053 1.951.386 4.196-2.363 4.939-3.395 1.647-2.297 2.928-5.37 3.71-8.453.832-3.257 1.146-6.887 2.654-9.442.816-1.39 1.899-2.854 3.711-3.224.377-.01.753-.023 1.126-.033.439-.066 1.208-.03 1.624.098.703.216 1.4.564 1.958.957.875.622 1.75 1.769 2.027 2.962.037.161.064.33.084.505v1.663zm-88.307 8.836c0-2.322-.22-4.445.201-6.502.129-.578.301-1.807-.124-2.123-.382-.294-1.538-.326-2.26-.319l-1.197.126c-.79.136-1.665.515-2.268.856-3.974 2.281-5.76 6.787-6.727 11.424a250.09 250.09 0 0 1-.081 1.966c-.662 3.137.298 7.029 3.553 7.55 2.38.383 3.994-.755 5.114-1.462 2.115-1.318 3.549-3.539 4.119-6.057-.045-.521-.089-1.033-.129-1.554-.253-1.232-.201-2.566-.201-3.905zM42.18 32.894c-.616 2.413.349 4.748 2.843 5.086 1.316.174 2.671-.817 3.153-1.362 1.779-2.019 2.441-6.204 1.151-9.078-.294-.66-1.063-2.474-1.959-2.54-2.567 1.365-3.944 3.935-4.958 6.532l-.23 1.362zm68.283 22.631c-.17.658-.836 3.978-.179 4.345.958.535 2.678-.732 3.15-1.118 2.081-1.708 3.574-4.108 4.317-7.196.463-1.928.472-4.547-1.681-4.556l-1.108.371c-2.176 1.448-3.729 5.226-4.499 8.154z"
       id="a" />
  </defs>
  <sodipodi:namedview
     pagecolor="#ffffff"
     bordercolor="#666666"
     borderopacity="1"
     objecttolerance="10"
     gridtolerance="10"
     guidetolerance="10"
     inkscape:pageopacity="0"
     inkscape:pageshadow="2"
     inkscape:window-width="1920"
     inkscape:window-height="1012"
     id="namedview12"
     showgrid="false"
     inkscape:zoom="0.7071068"
     inkscape:cx="458.93753"
     inkscape:cy="241.7403"
     inkscape:window-x="-8"
     inkscape:window-y="-8"
     inkscape:window-maximized="1"
     inkscape:current-layer="svg10"
     showguides="true"
     inkscape:guide-bbox="true"
     inkscape:measure-start="25.1142,38.8047"
     inkscape:measure-end="25.1142,42.6253"
     inkscape:lockguides="false">
    <sodipodi:guide
       position="500,-0.07421875"
       orientation="1,0"
       id="guide4668"
       inkscape:locked="false" />
    <sodipodi:guide
       position="1000.2539,250.00781"
       orientation="0,1"
       id="guide4670"
       inkscape:locked="false" />
  </sodipodi:namedview>
  <title
     id="title2">Ticket</title>
  <desc
     id="desc4">A line styled icon from Orion Icon Library.</desc>
  <rect
     style="opacity:1;fill:#ffffff;fill-opacity:1;fill-rule:evenodd;stroke:none;stroke-width:1.99937022;stroke-linecap:square;stroke-linejoin:miter;stroke-miterlimit:10;stroke-dasharray:none;stroke-dashoffset:0;stroke-opacity:1;paint-order:normal"
     id="rect4658"
     width="1000"
     height="500"
     x="0"
     y="-5.9999998e-008"
     inkscape:export-xdpi="96"
     inkscape:export-ydpi="96" />
  <g
     id="g4610"
     transform="matrix(7.3781627,0,0,7.3781627,137.9422,-100.12763)"
     style="stroke-width:0.13553509"
     inkscape:export-xdpi="96"
     inkscape:export-ydpi="96" />
  <use
     id="use842"
     xlink:href="#a"
     style="fill:#e7276e;fill-opacity:1;fill-rule:evenodd;stroke-width:0.38511699"
     x="0"
     y="0"
     width="100%"
     height="100%"
     transform="matrix(2.5966136,0,0,2.5966136,186.86523,79.999415)" />
</svg>
